solid OpenSCAD_Model
  facet normal 0 0 -1
    outer loop
      vertex -220 0 0
      vertex -5 5 0
      vertex 0 0 0
    endloop
  endfacet
  facet normal 0 0 -1
    outer loop
      vertex -220 40 0
      vertex 0 150 0
      vertex -215 40 0
    endloop
  endfacet
  facet normal 0 0 -1
    outer loop
      vertex 0 150 0
      vertex -5 140 0
      vertex -215 40 0
    endloop
  endfacet
  facet normal 0 0 -1
    outer loop
      vertex -5 140 0
      vertex 0 150 0
      vertex 0 0 0
    endloop
  endfacet
  facet normal 0 0 -1
    outer loop
      vertex -5 5 0
      vertex -5 140 0
      vertex 0 0 0
    endloop
  endfacet
  facet normal 0 0 -1
    outer loop
      vertex -220 40 0
      vertex -215 5 0
      vertex -220 0 0
    endloop
  endfacet
  facet normal 0 -0 -1
    outer loop
      vertex -215 5 0
      vertex -5 5 0
      vertex -220 0 0
    endloop
  endfacet
  facet normal 0 0 -1
    outer loop
      vertex -220 40 0
      vertex -215 40 0
      vertex -215 5 0
    endloop
  endfacet
  facet normal 0 0 1
    outer loop
      vertex 0 0 1
      vertex -5 5 1
      vertex -220 0 1
    endloop
  endfacet
  facet normal 0 -0 1
    outer loop
      vertex -215 40 1
      vertex 0 150 1
      vertex -220 40 1
    endloop
  endfacet
  facet normal 0 0 1
    outer loop
      vertex -215 40 1
      vertex -5 140 1
      vertex 0 150 1
    endloop
  endfacet
  facet normal 0 -0 1
    outer loop
      vertex 0 0 1
      vertex 0 150 1
      vertex -5 140 1
    endloop
  endfacet
  facet normal 0 0 1
    outer loop
      vertex 0 0 1
      vertex -5 140 1
      vertex -5 5 1
    endloop
  endfacet
  facet normal 0 0 1
    outer loop
      vertex -220 0 1
      vertex -215 5 1
      vertex -220 40 1
    endloop
  endfacet
  facet normal 0 0 1
    outer loop
      vertex -220 0 1
      vertex -5 5 1
      vertex -215 5 1
    endloop
  endfacet
  facet normal 0 -0 1
    outer loop
      vertex -215 5 1
      vertex -215 40 1
      vertex -220 40 1
    endloop
  endfacet
  facet normal -1 0 0
    outer loop
      vertex -220 0 0
      vertex -220 40 1
      vertex -220 40 0
    endloop
  endfacet
  facet normal -1 0 0
    outer loop
      vertex -220 0 0
      vertex -220 0 1
      vertex -220 40 1
    endloop
  endfacet
  facet normal 0 -1 0
    outer loop
      vertex 0 0 0
      vertex -220 0 1
      vertex -220 0 0
    endloop
  endfacet
  facet normal 0 -1 0
    outer loop
      vertex 0 0 0
      vertex 0 0 1
      vertex -220 0 1
    endloop
  endfacet
  facet normal 1 0 0
    outer loop
      vertex 0 150 0
      vertex 0 0 1
      vertex 0 0 0
    endloop
  endfacet
  facet normal 1 0 -0
    outer loop
      vertex 0 150 0
      vertex 0 150 1
      vertex 0 0 1
    endloop
  endfacet
  facet normal -0.447214 0.894427 0
    outer loop
      vertex -220 40 0
      vertex 0 150 1
      vertex 0 150 0
    endloop
  endfacet
  facet normal -0.447214 0.894427 0
    outer loop
      vertex -220 40 0
      vertex -220 40 1
      vertex 0 150 1
    endloop
  endfacet
  facet normal 0 1 0
    outer loop
      vertex -215 5 0
      vertex -215 5 1
      vertex -5 5 0
    endloop
  endfacet
  facet normal 0 1 0
    outer loop
      vertex -5 5 1
      vertex -5 5 0
      vertex -215 5 1
    endloop
  endfacet
  facet normal 1 0 -0
    outer loop
      vertex -215 40 0
      vertex -215 40 1
      vertex -215 5 0
    endloop
  endfacet
  facet normal 1 -0 0
    outer loop
      vertex -215 5 1
      vertex -215 5 0
      vertex -215 40 1
    endloop
  endfacet
  facet normal 0.429934 -0.902861 0
    outer loop
      vertex -5 140 0
      vertex -5 140 1
      vertex -215 40 0
    endloop
  endfacet
  facet normal 0.429934 -0.902861 0
    outer loop
      vertex -215 40 1
      vertex -215 40 0
      vertex -5 140 1
    endloop
  endfacet
  facet normal -1 0 0
    outer loop
      vertex -5 5 0
      vertex -5 5 1
      vertex -5 140 0
    endloop
  endfacet
  facet normal -1 -0 -0
    outer loop
      vertex -5 140 1
      vertex -5 140 0
      vertex -5 5 1
    endloop
  endfacet
endsolid OpenSCAD_Model
