solid OpenSCAD_Model
  facet normal 0 0 -1
    outer loop
      vertex 0 220 0
      vertex 40 220 0
      vertex 0 0 0
    endloop
  endfacet
  facet normal 0 -0 -1
    outer loop
      vertex 40 220 0
      vertex 150 0 0
      vertex 0 0 0
    endloop
  endfacet
  facet normal 0 0 1
    outer loop
      vertex 0 0 5
      vertex 40 220 5
      vertex 0 220 5
    endloop
  endfacet
  facet normal 0 0 1
    outer loop
      vertex 0 0 5
      vertex 150 0 5
      vertex 40 220 5
    endloop
  endfacet
  facet normal 0 1 0
    outer loop
      vertex 0 220 0
      vertex 40 220 5
      vertex 40 220 0
    endloop
  endfacet
  facet normal 0 1 0
    outer loop
      vertex 0 220 0
      vertex 0 220 5
      vertex 40 220 5
    endloop
  endfacet
  facet normal -1 0 0
    outer loop
      vertex 0 0 0
      vertex 0 220 5
      vertex 0 220 0
    endloop
  endfacet
  facet normal -1 0 0
    outer loop
      vertex 0 0 0
      vertex 0 0 5
      vertex 0 220 5
    endloop
  endfacet
  facet normal 0 -1 0
    outer loop
      vertex 150 0 0
      vertex 0 0 5
      vertex 0 0 0
    endloop
  endfacet
  facet normal 0 -1 0
    outer loop
      vertex 150 0 0
      vertex 150 0 5
      vertex 0 0 5
    endloop
  endfacet
  facet normal 0.894427 0.447214 0
    outer loop
      vertex 40 220 0
      vertex 150 0 5
      vertex 150 0 0
    endloop
  endfacet
  facet normal 0.894427 0.447214 -0
    outer loop
      vertex 40 220 0
      vertex 40 220 5
      vertex 150 0 5
    endloop
  endfacet
endsolid OpenSCAD_Model
